<?xml version="1.0" encoding="UTF-8"?>
<svg id="Camada_1" xmlns="http://www.w3.org/2000/svg" version="1.1" viewBox="0 0 300 300">
  <!-- Generator: Adobe Illustrator 30.0.0, SVG Export Plug-In . SVG Version: 2.1.1 Build 123)  -->
  <defs>
    <style>
      .st0 {
        fill: #fff;
      }
    </style>
  </defs>
  <rect class="st0" width="300" height="300" rx="63" ry="63"/>
  <g>
    <path d="M51.1,225.14l-.1-13.63,12.83-2.78,47.93-135.56h31.92l47.84,135.56,13.83,2.78v13.63h-64.55v-13.63l16.21-2.78-7.46-24.27h-54l-7.06,24.37,16.41,2.69v13.63h-53.8ZM118.53,104.8l-18.5,64.15h44.75l-19.59-64.15-3.48-14.52-3.18,14.52h0Z"/>
    <path d="M228.31,226.83c-2.33,0-4.54-.36-6.66-1.09-2.12-.73-3.98-1.79-5.57-3.18-1.59-1.39-2.85-3.07-3.78-5.02-.93-1.95-1.39-4.16-1.39-6.61,0-2.72.53-5.22,1.59-7.51s2.52-4.29,4.37-6.02c1.85-1.72,4.01-3.07,6.47-4.03,2.46-.96,5.07-1.45,7.86-1.45,3.25,0,6,.43,8.26,1.29,2.25.87,4.09,2.03,5.52,3.48,1.43,1.46,2.45,3.15,3.08,5.07s.94,3.98.94,6.17c0,2.85-.51,5.44-1.54,7.75-1.03,2.33-2.46,4.31-4.28,5.97s-4.01,2.93-6.57,3.83c-2.55.9-5.32,1.34-8.31,1.34h0s0,.01,0,.01Z"/>
  </g>
</svg>