<?xml version="1.0" encoding="UTF-8"?>
<svg id="Camada_1" xmlns="http://www.w3.org/2000/svg" version="1.1" viewBox="0 0 300 300">
  <!-- Generator: Adobe Illustrator 30.0.0, SVG Export Plug-In . SVG Version: 2.1.1 Build 123)  -->
  <defs>
    <style>
      .st0 {
        fill: #515151;
      }
    </style>
  </defs>
  <path class="st0" d="M7.11,258.57l-.14-19.69,18.54-4.02L94.76,38.99h46.12l69.12,195.86,19.98,4.02v19.69h-93.26v-19.69l23.42-4.02-10.78-35.06h-78.03l-10.2,35.21,23.71,3.88v19.69H7.11ZM104.53,84.69l-26.73,92.69h64.66l-28.31-92.69-5.03-20.98s-4.6,20.98-4.6,20.98Z"/>
  <path class="st0" d="M263.15,261.01c-3.36,0-6.56-.52-9.63-1.58-3.07-1.05-5.75-2.58-8.05-4.6-2.3-2.01-4.12-4.43-5.46-7.26-1.34-2.82-2.01-6.01-2.01-9.55,0-3.93.76-7.54,2.3-10.85s3.64-6.2,6.32-8.7c2.68-2.49,5.8-4.43,9.35-5.82,3.55-1.39,7.33-2.09,11.36-2.09,4.69,0,8.67.62,11.93,1.87,3.25,1.25,5.91,2.93,7.97,5.03,2.06,2.11,3.54,4.55,4.45,7.33.91,2.78,1.36,5.75,1.36,8.91,0,4.12-.74,7.86-2.23,11.2-1.49,3.36-3.55,6.23-6.18,8.62s-5.8,4.24-9.49,5.53c-3.69,1.3-7.69,1.94-12,1.94v.02Z"/>
</svg>